<?xml version="1.0" standalone="no"?>
<!DOCTYPE svg PUBLIC "-//W3C//DTD SVG 20010904//EN"
 "http://www.w3.org/TR/2001/REC-SVG-20010904/DTD/svg10.dtd">
<svg version="1.0" xmlns="http://www.w3.org/2000/svg"
 width="300.000000pt" height="208.000000pt" viewBox="0 0 300.000000 208.000000"
 preserveAspectRatio="xMidYMid meet">

<g transform="translate(0.000000,208.000000) scale(0.100000,-0.100000)"
fill="#000000" stroke="none">
<path d="M0 1040 l0 -1040 1500 0 1500 0 0 1040 0 1040 -1500 0 -1500 0 0
-1040z m577 749 c7 -19 10 -49 7 -68 -5 -33 -5 -33 18 -17 12 9 34 16 48 16
l25 -1 -24 -20 c-16 -13 -36 -19 -55 -17 -26 3 -33 10 -50 49 -20 49 -16 104
7 96 7 -2 18 -19 24 -38z m78 13 c-6 -28 -5 -28 27 -24 31 4 32 3 17 -13 -9
-9 -32 -18 -50 -18 -32 -2 -34 0 -31 28 4 31 18 55 34 55 5 0 7 -13 3 -28z
m65 13 c-14 -16 -40 -20 -40 -6 0 10 17 19 39 20 11 1 11 -2 1 -14z m1444 9
c9 -3 16 -10 16 -15 0 -14 -26 -10 -40 6 -13 16 -3 20 24 9z m64 -6 c7 -7 12
-27 12 -46 0 -34 -1 -34 -32 -28 -18 4 -40 14 -48 22 -14 15 -12 16 17 12 30
-4 31 -3 26 24 -6 29 5 36 25 16z m97 -18 c4 -19 0 -44 -14 -75 -17 -39 -24
-45 -49 -45 -17 0 -40 9 -53 20 l-24 19 25 1 c14 0 35 -7 47 -15 21 -15 22
-14 16 18 -5 35 19 107 36 107 5 0 12 -13 16 -30z m-1815 -92 c11 -24 20 -56
20 -71 0 -27 1 -28 22 -13 25 18 58 21 58 6 0 -15 -66 -44 -84 -37 -27 11 -56
69 -56 115 0 23 5 42 10 42 6 0 20 -19 30 -42z m1880 0 c0 -44 -29 -104 -54
-114 -17 -7 -86 22 -86 35 0 16 32 13 58 -5 21 -15 22 -14 22 16 0 34 35 110
50 110 6 0 10 -19 10 -42z m-1918 -142 l11 -42 35 18 c19 9 40 15 45 11 17
-10 -42 -53 -73 -53 -42 0 -80 58 -80 120 l1 45 25 -28 c13 -16 30 -48 36 -71z
m1976 45 c-10 -99 -73 -140 -135 -87 -38 33 -23 43 27 17 39 -20 40 -20 40 -1
0 35 48 120 68 120 3 0 2 -22 0 -49z m-2048 -93 c16 -22 30 -51 30 -63 0 -33
10 -36 40 -15 16 11 35 20 44 20 27 0 2 -35 -40 -55 -36 -17 -36 -17 -66 12
-38 36 -58 74 -58 113 0 41 14 38 50 -12z m2106 -13 c-5 -22 -22 -53 -45 -77
l-37 -40 -36 15 c-43 18 -70 57 -40 57 11 0 31 -11 45 -24 l26 -24 7 34 c8 45
62 120 76 106 6 -6 8 -26 4 -47z m-1151 -30 c421 -69 799 -288 916 -530 52
-107 37 -187 -51 -269 -96 -90 -269 -155 -473 -177 -347 -38 -729 96 -979 345
-179 179 -262 379 -199 482 51 83 201 147 396 168 69 7 297 -4 390 -19z
m-1008 -57 c37 -40 53 -69 53 -99 0 -22 1 -21 33 9 35 34 57 41 57 18 0 -16
-42 -52 -72 -62 -37 -11 -118 88 -118 145 0 29 11 26 47 -11z m2210 -4 c-7
-40 -45 -96 -82 -120 -23 -15 -27 -15 -56 2 -18 11 -38 29 -47 42 -13 20 -13
22 6 22 11 0 34 -14 51 -32 29 -30 31 -31 31 -9 0 30 16 59 53 99 40 41 51 41
44 -4z m-2231 -128 c23 -24 45 -59 49 -77 l7 -33 14 26 c12 22 54 58 69 58 3
0 5 -7 5 -16 0 -22 -58 -74 -82 -74 -44 0 -110 68 -123 128 -9 45 9 42 61 -12z
m2274 32 c-1 -34 -42 -100 -81 -127 -42 -31 -42 -31 -73 -13 -32 19 -65 66
-54 77 10 10 57 -25 72 -53 l14 -26 7 33 c4 18 26 53 49 77 42 44 66 55 66 32z
m-2304 -148 c22 -16 49 -45 59 -65 11 -19 22 -35 25 -35 3 0 12 13 22 29 9 16
26 34 37 40 18 10 21 9 21 -7 0 -23 -33 -68 -61 -82 -40 -22 -140 53 -158 118
-12 41 2 42 55 2z m2324 5 c0 -54 -119 -147 -159 -125 -41 22 -82 100 -52 100
11 0 61 -58 61 -71 0 -20 17 -7 33 26 15 31 88 95 109 95 4 0 8 -11 8 -25z
m-2312 -147 c19 -12 46 -38 62 -59 l28 -39 5 29 c7 33 52 90 62 79 11 -11 -13
-70 -41 -99 -25 -27 -27 -27 -67 -13 -53 19 -103 57 -122 94 -8 16 -15 32 -15
36 0 10 53 -6 88 -28z m2332 27 c0 -4 -7 -19 -15 -35 -19 -37 -69 -75 -123
-94 -41 -15 -41 -14 -71 16 -30 30 -49 83 -36 96 10 11 55 -47 62 -78 l5 -29
32 41 c38 50 146 111 146 83z m-2321 -160 c27 -13 60 -38 75 -55 23 -28 27
-29 32 -13 10 36 39 87 52 91 22 7 13 -51 -13 -91 -31 -45 -57 -47 -130 -13
-47 21 -105 75 -105 97 0 16 40 10 89 -16z m2091 -7 c11 -18 20 -46 20 -62 l0
-30 35 41 c37 43 106 83 143 83 30 0 28 -13 -8 -53 -34 -40 -119 -80 -158 -75
-32 4 -72 59 -72 99 0 38 16 37 40 -3z m-1865 -108 c4 -13 -2 -39 -17 -68 -21
-43 -27 -47 -62 -50 -53 -5 -141 33 -172 73 -31 40 -30 45 4 45 40 -1 112 -36
153 -76 l36 -35 1 35 c1 38 27 96 42 96 5 0 12 -9 15 -20z m1810 -10 c8 -16
15 -46 15 -67 l0 -37 38 36 c42 42 114 77 155 78 32 0 32 -2 11 -36 -29 -43
-98 -77 -162 -78 l-57 -1 -22 45 c-34 67 -12 126 22 60z m-1743 -112 c5 -30
-10 -85 -30 -116 -14 -22 -21 -24 -61 -18 -82 11 -138 35 -173 74 l-32 37 28
3 c43 5 132 -27 176 -65 l40 -35 0 42 c0 42 23 100 40 100 5 0 10 -10 12 -22z
m1674 -13 c7 -19 14 -51 14 -71 l0 -36 40 35 c42 39 130 71 177 65 l27 -3 -32
-37 c-35 -39 -91 -63 -173 -74 -42 -6 -49 -4 -63 19 -23 35 -37 86 -30 114 9
33 23 29 40 -12z m-1590 -101 c9 -33 -1 -90 -21 -120 -13 -21 -23 -24 -73 -24
-82 0 -129 16 -176 61 l-41 38 50 1 c66 0 121 -16 172 -50 l41 -28 -1 41 c-2
43 19 107 34 107 5 0 12 -11 15 -26z m1502 1 c7 -14 12 -48 12 -76 l0 -50 35
26 c19 15 55 33 81 41 53 16 134 19 134 5 0 -18 -70 -70 -107 -80 -21 -6 -66
-11 -99 -11 l-62 0 -16 40 c-17 42 -20 87 -10 114 9 23 19 20 32 -9z m-1413
-108 c20 -47 4 -127 -29 -149 -17 -11 -136 -9 -179 3 -43 12 -106 63 -94 76 5
4 38 7 73 6 58 -2 105 -17 185 -60 4 -2 4 16 2 40 -5 40 11 117 23 117 3 0 11
-15 19 -33z m1332 -79 l-6 -46 64 29 c47 23 80 31 129 32 35 1 68 -2 73 -7 12
-12 -55 -65 -97 -76 -46 -13 -156 -13 -180 0 -12 6 -23 30 -30 63 -11 53 -7
79 14 106 17 22 39 -45 33 -101z m-1186 -43 c10 -17 21 -42 24 -58 7 -25 4
-29 -41 -49 -67 -29 -167 -35 -219 -14 -38 17 -39 18 -20 32 42 31 168 47 228
28 21 -6 20 -4 -4 22 -31 34 -49 66 -49 89 0 15 3 15 32 -2 18 -10 40 -32 49
-48z m1075 31 c-3 -14 -21 -42 -38 -62 -29 -33 -30 -36 -10 -30 57 18 185 3
226 -27 16 -12 15 -15 -23 -32 -32 -14 -55 -17 -110 -12 -75 6 -151 38 -151
63 0 30 41 95 72 114 37 22 43 20 34 -14z m-951 -40 c18 -8 48 -34 65 -57 l30
-42 -22 -24 c-39 -41 -135 -83 -192 -83 -28 0 -57 4 -65 9 -32 21 127 101 201
101 l33 0 -31 19 c-31 19 -74 67 -74 82 0 13 16 11 55 -5z m788 -18 c-11 -18
-34 -43 -53 -55 l-33 -23 32 0 c44 0 136 -34 179 -66 32 -25 33 -28 16 -35
-62 -24 -170 5 -241 65 -31 26 -32 29 -19 54 25 48 82 89 124 91 10 1 9 -7 -5
-31z m-398 -137 c28 1 91 2 140 3 87 1 92 0 150 -35 33 -21 69 -39 80 -42 11
-2 -15 -5 -57 -6 -63 -1 -88 4 -134 24 -36 16 -73 25 -103 24 l-46 -1 70 -23
c53 -18 65 -25 51 -31 -19 -7 -78 5 -133 27 -27 11 -39 11 -65 0 -56 -22 -115
-34 -134 -27 -15 6 -3 13 46 29 65 21 65 22 27 25 -23 2 -61 -6 -101 -22 -50
-20 -81 -26 -138 -25 -64 0 -69 2 -43 11 17 6 42 19 57 30 61 42 89 49 188 42
52 -3 118 -5 145 -3z"/>
<path d="M995 1396 c-151 -30 -251 -89 -275 -162 -33 -99 96 -287 294 -428
229 -164 541 -250 786 -216 205 28 366 106 416 201 99 192 -293 498 -761 595
-102 21 -373 27 -460 10z m205 -128 c62 -32 83 -72 88 -174 4 -82 4 -83 -27
-115 -29 -29 -36 -31 -81 -27 -125 12 -222 175 -158 267 25 37 80 71 113 71
12 0 41 -10 65 -22z m909 -294 c31 -40 28 -95 -9 -137 -37 -43 -99 -63 -137
-45 -39 20 -64 59 -66 108 l-2 43 75 28 c96 35 114 35 139 3z m-481 -117 c4
-31 5 -30 -37 -16 -35 12 -39 23 -13 38 27 17 47 8 50 -22z"/>
</g>
</svg>
